<?xml version="1.0" encoding="UTF-8" standalone="no"?>
<svg
   xmlns:dc="http://purl.org/dc/elements/1.1/"
   xmlns:cc="http://creativecommons.org/ns#"
   xmlns:rdf="http://www.w3.org/1999/02/22-rdf-syntax-ns#"
   xmlns:svg="http://www.w3.org/2000/svg"
   xmlns="http://www.w3.org/2000/svg"
   xmlns:sodipodi="http://sodipodi.sourceforge.net/DTD/sodipodi-0.dtd"
   xmlns:inkscape="http://www.inkscape.org/namespaces/inkscape"
   inkscape:version="1.0 (4035a4fb49, 2020-05-01)"
   sodipodi:docname="logo.svg"
   viewBox="0 0 1258.6667 1125.3333"
   height="1125.3333"
   width="1258.6667"
   xml:space="preserve"
   id="svg2"
   version="1.1"><metadata
     id="metadata8"><rdf:RDF><cc:Work
         rdf:about=""><dc:format>image/svg+xml</dc:format><dc:type
           rdf:resource="http://purl.org/dc/dcmitype/StillImage" /><dc:title></dc:title></cc:Work></rdf:RDF></metadata><defs
     id="defs6"><clipPath
       id="clipPath18"
       clipPathUnits="userSpaceOnUse"><path
         id="path16"
         d="M 0,844 H 944 V 0 H 0 Z" /></clipPath></defs><sodipodi:namedview
     inkscape:current-layer="g14"
     inkscape:window-maximized="0"
     inkscape:window-y="1019"
     inkscape:window-x="3490"
     inkscape:cy="602.59911"
     inkscape:cx="504.45388"
     inkscape:zoom="0.89854512"
     showgrid="false"
     id="namedview4"
     inkscape:window-height="889"
     inkscape:window-width="1452"
     inkscape:pageshadow="2"
     inkscape:pageopacity="0"
     guidetolerance="10"
     gridtolerance="10"
     objecttolerance="10"
     borderopacity="1"
     bordercolor="#666666"
     pagecolor="#ffffff" /><g
     transform="matrix(1.3333333,0,0,-1.3333333,0,1125.3333)"
     inkscape:label="logo"
     inkscape:groupmode="layer"
     id="g10"><g
       id="g12"><g
         clip-path="url(#clipPath18)"
         id="g14"><g
           transform="translate(509.6553,577.1611)"
           id="g20"><path
             id="path22"
             style="fill:#135792;fill-opacity:1;fill-rule:nonzero;stroke:none"
             d="M 0,0 C -5.966,16.431 -14.841,28.556 -29.878,28.556 -45.507,28.556 -55.34,14.306 -59.896,0 Z" /></g><g
           transform="translate(529.4678,439.8818)"
           id="g24"><path
             id="path26"
             style="fill:#3897cb;fill-opacity:1;fill-rule:nonzero;stroke:none"
             d="m 0,0 c 0,-3.107 -2.519,-5.625 -5.626,-5.625 -3.106,0 -5.626,2.518 -5.626,5.625 v 9.697 c 0,3.107 2.52,5.625 5.626,5.625 C -2.519,15.322 0,12.804 0,9.697 Z m -21.842,63.097 c 0,-3.107 -2.518,-5.626 -5.626,-5.626 -3.106,0 -5.626,2.519 -5.626,5.626 v 19.29 c 0,3.107 2.52,5.626 5.626,5.626 3.108,0 5.626,-2.519 5.626,-5.626 z m 0,-45.022 c 0,-3.107 -2.518,-5.626 -5.626,-5.626 -3.106,0 -5.626,2.519 -5.626,5.626 v 26.417 c 0,3.108 2.52,5.626 5.626,5.626 3.108,0 5.626,-2.518 5.626,-5.626 z M -44.293,86.44 c 0,-3.107 -2.52,-5.625 -5.626,-5.625 -3.107,0 -5.626,2.518 -5.626,5.625 v 12.608 c 0,3.107 2.519,5.626 5.626,5.626 3.106,0 5.626,-2.519 5.626,-5.626 z m 0,-58.61 c 0,-3.107 -2.52,-5.626 -5.626,-5.626 -3.107,0 -5.626,2.519 -5.626,5.626 v 39.286 c 0,3.107 2.519,5.626 5.626,5.626 3.106,0 5.626,-2.519 5.626,-5.626 z m 0,-33.497 c 0,-3.107 -2.52,-5.626 -5.626,-5.626 -3.107,0 -5.626,2.519 -5.626,5.626 v 16.671 c 0,3.107 2.519,5.625 5.626,5.625 3.106,0 5.626,-2.518 5.626,-5.625 z m -22.491,64.193 c 0,-3.107 -2.519,-5.626 -5.626,-5.626 -3.107,0 -5.626,2.519 -5.626,5.626 v 13.096 c 0,3.107 2.519,5.626 5.626,5.626 3.107,0 5.626,-2.519 5.626,-5.626 z m 0,-57.6 c 0,-3.107 -2.519,-5.626 -5.626,-5.626 -3.107,0 -5.626,2.519 -5.626,5.626 v 41.033 c 0,3.107 2.519,5.625 5.626,5.625 3.107,0 5.626,-2.518 5.626,-5.625 z m -21.711,1.106 c 0,-3.107 -2.518,-5.626 -5.626,-5.626 -3.107,0 -5.625,2.519 -5.625,5.626 v 9.697 c 0,3.107 2.518,5.625 5.625,5.625 3.108,0 5.626,-2.518 5.626,-5.625 z M 38.094,-43.332 c 0,0 -54.019,169.264 -56.35,175.36 h -63.392 c -0.095,-0.281 -0.143,-0.424 -0.143,-0.424 l -56.048,-174.936 c 0,-2.535 2.02,-4.628 4.67,-5.043 l -0.011,-0.068 h 0.752 c 0.073,-0.003 0.141,-0.02 0.214,-0.02 0.074,0 0.142,0.017 0.214,0.02 h 31.661 v 28.786 c 0,3.106 2.519,5.625 5.626,5.625 3.107,0 5.626,-2.519 5.626,-5.625 v -28.786 h 0.045 v -4.074 c 0,-3.107 2.519,-5.626 5.625,-5.626 2.536,0 4.678,1.678 5.381,3.983 v 40.17 c 0,3.107 2.519,5.626 5.626,5.626 3.107,0 5.626,-2.519 5.626,-5.626 v -27.187 h 0.038 v -22.562 c 0,-3.107 2.519,-5.626 5.626,-5.626 3.107,0 5.627,2.519 5.627,5.626 v 6.256 c -0.031,0.237 -0.052,0.477 -0.052,0.723 v 35.82 c 0,3.107 2.519,5.626 5.626,5.626 3.106,0 5.626,-2.519 5.626,-5.626 v -28.625 c 0.584,-2.484 2.809,-4.334 5.471,-4.334 3.107,0 5.728,2.518 5.728,5.625 v 4.813 2.284 42.684 c 0,3.107 2.52,5.626 5.626,5.626 3.108,0 5.626,-2.519 5.626,-5.626 v -42.684 -4.284 -13.229 c 0,-3.107 2.519,-5.625 5.626,-5.625 2.822,0 5.153,2.082 5.557,5.541 v 37.085 c 0,3.106 2.519,5.625 5.626,5.625 3.107,0 5.626,-2.519 5.626,-5.625 v -26.754 h 31.661 c 0.072,-0.003 0.141,-0.02 0.214,-0.02 0.073,0 0.141,0.017 0.215,0.02 h 0.752 l -0.011,0.068 c 2.649,0.415 4.67,2.508 4.67,5.043" /></g><g
           transform="matrix(1.44,0,0,1.44,512.4287,367.95408)"
           id="g28"><path
             id="path30"
             style="fill:#f15a29;fill-opacity:1;fill-rule:nonzero;stroke:none"
             d="m 0,0 c -3.154,0 -5.72,-2.566 -5.72,-5.721 0,-1.052 0.289,-2.082 0.836,-2.978 1.05,-1.717 2.875,-2.74 4.884,-2.74 3.154,0 5.72,2.564 5.72,5.718 C 5.72,-2.566 3.154,0 0,0" /></g><g
           transform="translate(512.4287,299.5322)"
           id="g32"><path
             id="path34"
             style="fill:#f15a29;fill-opacity:1;fill-rule:nonzero;stroke:none"
             d="m 0,0 v 0 c 2.099,0 3.799,-1.701 3.799,-3.8 0,-2.097 -1.7,-3.799 -3.799,-3.799 -1.373,0 -2.576,0.729 -3.244,1.821 -0.352,0.577 -0.555,1.254 -0.555,1.978 0,2.099 1.701,3.8 3.799,3.8" /></g><g
           transform="matrix(1.2,0,0,1.2,512.4287,322.5331)"
           id="g40"><path
             id="path42"
             style="fill:#f15a29;fill-opacity:1;fill-rule:nonzero;stroke:none"
             d="M 0,0 V 0 C 2.519,0 4.561,-2.042 4.561,-4.561 4.561,-7.079 2.519,-9.12 0,-9.12 c -1.648,0 -3.093,0.874 -3.895,2.184 -0.421,0.693 -0.666,1.505 -0.666,2.375 C -4.561,-2.042 -2.519,0 0,0" /></g><g
           transform="matrix(1.2,0,0,1.2,512.4286,344.4929)"
           id="g44"><path
             id="path46"
             style="fill:#f15a29;fill-opacity:1;fill-rule:nonzero;stroke:none"
             d="m 0,0 v 0 c 2.809,0 5.087,-2.277 5.087,-5.087 0,-2.809 -2.278,-5.086 -5.087,-5.086 -1.839,0 -3.449,0.976 -4.343,2.438 -0.471,0.771 -0.743,1.678 -0.743,2.648 C -5.086,-2.277 -2.81,0 0,0" /></g><g
           transform="matrix(1.44,0,0,1.44,468.0952,362.95408)"
           id="g48"><path
             id="path50"
             style="fill:#f15a29;fill-opacity:1;fill-rule:nonzero;stroke:none"
             d="m 0,0 c -3.154,0 -5.72,-2.566 -5.72,-5.721 0,-1.052 0.289,-2.082 0.836,-2.978 1.05,-1.717 2.875,-2.74 4.884,-2.74 3.154,0 5.72,2.564 5.72,5.718 C 5.72,-2.566 3.154,0 0,0" /></g><g
           transform="translate(468.0957,294.5322)"
           id="g52"><path
             id="path54"
             style="fill:#f15a29;fill-opacity:1;fill-rule:nonzero;stroke:none"
             d="m 0,0 v 0 c 2.098,0 3.799,-1.701 3.799,-3.8 0,-2.097 -1.701,-3.799 -3.799,-3.799 -1.374,0 -2.577,0.729 -3.244,1.821 -0.352,0.577 -0.555,1.254 -0.555,1.978 0,2.099 1.7,3.8 3.799,3.8" /></g><g
           transform="matrix(1.2,0,0,1.2,468.0951,317.5331)"
           id="g60"><path
             id="path62"
             style="fill:#f15a29;fill-opacity:1;fill-rule:nonzero;stroke:none"
             d="M 0,0 V 0 C 2.519,0 4.561,-2.042 4.561,-4.561 4.561,-7.079 2.519,-9.12 0,-9.12 c -1.648,0 -3.093,0.874 -3.894,2.184 -0.422,0.693 -0.666,1.505 -0.666,2.375 C -4.56,-2.042 -2.519,0 0,0" /></g><g
           transform="matrix(1.2,0,0,1.2,468.0952,339.4929)"
           id="g64"><path
             id="path66"
             style="fill:#f15a29;fill-opacity:1;fill-rule:nonzero;stroke:none"
             d="m 0,0 v 0 c 2.809,0 5.086,-2.277 5.086,-5.087 0,-2.809 -2.277,-5.086 -5.086,-5.086 -1.839,0 -3.449,0.976 -4.343,2.438 -0.471,0.771 -0.743,1.678 -0.743,2.648 C -5.086,-2.277 -2.809,0 0,0" /></g><g
           transform="matrix(1.44,0,0,1.44,490.2617,377.45408)"
           id="g68"><path
             id="path70"
             style="fill:#f15a29;fill-opacity:1;fill-rule:nonzero;stroke:none"
             d="m 0,0 c -3.154,0 -5.72,-2.566 -5.72,-5.721 0,-1.052 0.289,-2.082 0.836,-2.978 1.05,-1.717 2.875,-2.74 4.884,-2.74 3.154,0 5.72,2.564 5.72,5.718 C 5.72,-2.566 3.154,0 0,0" /></g><g
           transform="translate(490.2617,312.0322)"
           id="g72"><path
             id="path74"
             style="fill:#f15a29;fill-opacity:1;fill-rule:nonzero;stroke:none"
             d="m 0,0 v 0 c 2.099,0 3.8,-1.701 3.8,-3.8 0,-2.097 -1.701,-3.799 -3.8,-3.799 -1.373,0 -2.576,0.729 -3.243,1.821 -0.353,0.577 -0.556,1.254 -0.556,1.978 0,2.099 1.701,3.8 3.799,3.8" /></g><g
           transform="matrix(1.2,0,0,1.2,490.2616,334.0331)"
           id="g80"><path
             id="path82"
             style="fill:#f15a29;fill-opacity:1;fill-rule:nonzero;stroke:none"
             d="M 0,0 V 0 C 2.519,0 4.561,-2.042 4.561,-4.561 4.561,-7.079 2.519,-9.12 0,-9.12 c -1.648,0 -3.093,0.874 -3.894,2.184 -0.422,0.693 -0.666,1.505 -0.666,2.375 C -4.56,-2.042 -2.519,0 0,0" /></g><g
           transform="matrix(1.2,0,0,1.2,490.2616,354.9929)"
           id="g84"><path
             id="path86"
             style="fill:#f15a29;fill-opacity:1;fill-rule:nonzero;stroke:none"
             d="m 0,0 v 0 c 2.81,0 5.087,-2.277 5.087,-5.087 0,-2.809 -2.277,-5.086 -5.087,-5.086 -1.839,0 -3.449,0.976 -4.343,2.438 -0.471,0.771 -0.743,1.678 -0.743,2.648 C -5.086,-2.277 -2.809,0 0,0" /></g><g
           transform="matrix(1.44,0,0,1.44,445.9287,374.12008)"
           id="g88"><path
             id="path90"
             style="fill:#f15a29;fill-opacity:1;fill-rule:nonzero;stroke:none"
             d="m 0,0 c -3.154,0 -5.72,-2.564 -5.72,-5.719 0,-1.054 0.289,-2.084 0.836,-2.98 1.05,-1.715 2.875,-2.74 4.884,-2.74 3.154,0 5.72,2.566 5.72,5.72 C 5.72,-2.564 3.154,0 0,0" /></g><g
           transform="translate(445.9287,308.6992)"
           id="g92"><path
             id="path94"
             style="fill:#f15a29;fill-opacity:1;fill-rule:nonzero;stroke:none"
             d="m 0,0 v 0 c 2.098,0 3.799,-1.701 3.799,-3.8 0,-2.097 -1.701,-3.799 -3.799,-3.799 -1.374,0 -2.577,0.729 -3.244,1.821 -0.352,0.576 -0.555,1.254 -0.555,1.978 0,2.099 1.701,3.8 3.799,3.8" /></g><g
           transform="matrix(1.2,0,0,1.2,445.9286,330.7002)"
           id="g100"><path
             id="path102"
             style="fill:#f15a29;fill-opacity:1;fill-rule:nonzero;stroke:none"
             d="m 0,0 v 0 c 2.519,0 4.561,-2.042 4.561,-4.561 0,-2.518 -2.042,-4.56 -4.561,-4.56 -1.649,0 -3.093,0.875 -3.894,2.185 -0.422,0.692 -0.666,1.505 -0.666,2.375 C -4.56,-2.042 -2.519,0 0,0" /></g><g
           transform="matrix(1.2,0,0,1.2,445.9287,351.6599)"
           id="g104"><path
             id="path106"
             style="fill:#f15a29;fill-opacity:1;fill-rule:nonzero;stroke:none"
             d="m 0,0 v 0 c 2.809,0 5.086,-2.277 5.086,-5.087 0,-2.809 -2.277,-5.086 -5.086,-5.086 -1.839,0 -3.45,0.976 -4.343,2.437 -0.471,0.772 -0.743,1.678 -0.743,2.649 C -5.086,-2.277 -2.809,0 0,0" /></g></g></g></g></svg>
