<?xml version="1.0" encoding="UTF-8" standalone="no"?>
<svg
   xmlns:dc="http://purl.org/dc/elements/1.1/"
   xmlns:cc="http://creativecommons.org/ns#"
   xmlns:rdf="http://www.w3.org/1999/02/22-rdf-syntax-ns#"
   xmlns:svg="http://www.w3.org/2000/svg"
   xmlns="http://www.w3.org/2000/svg"
   xmlns:sodipodi="http://sodipodi.sourceforge.net/DTD/sodipodi-0.dtd"
   xmlns:inkscape="http://www.inkscape.org/namespaces/inkscape"
   version="1.1"
   id="svg2"
   xml:space="preserve"
   width="1258.6667"
   height="1125.3333"
   viewBox="0 0 1258.6667 1125.3333"
   sodipodi:docname="logo2.svg"
   inkscape:version="1.0 (4035a4fb49, 2020-05-01)"><metadata
     id="metadata8"><rdf:RDF><cc:Work
         rdf:about=""><dc:format>image/svg+xml</dc:format><dc:type
           rdf:resource="http://purl.org/dc/dcmitype/StillImage" /><dc:title /></cc:Work></rdf:RDF></metadata><defs
     id="defs6"><clipPath
       clipPathUnits="userSpaceOnUse"
       id="clipPath18"><path
         d="M 0,844 H 944 V 0 H 0 Z"
         id="path16" /></clipPath></defs><sodipodi:namedview
     inkscape:document-rotation="0"
     pagecolor="#ffffff"
     bordercolor="#666666"
     borderopacity="1"
     objecttolerance="10"
     gridtolerance="10"
     guidetolerance="10"
     inkscape:pageopacity="0"
     inkscape:pageshadow="2"
     inkscape:window-width="3840"
     inkscape:window-height="2044"
     id="namedview4"
     showgrid="false"
     inkscape:zoom="0.63536735"
     inkscape:cx="312.10667"
     inkscape:cy="774.99235"
     inkscape:window-x="1920"
     inkscape:window-y="0"
     inkscape:window-maximized="1"
     inkscape:current-layer="g14" /><g
     id="g10"
     inkscape:groupmode="layer"
     inkscape:label="logo"
     transform="matrix(1.3333333,0,0,-1.3333333,0,1125.3333)"><g
       id="g12"><g
         id="g14"
         clip-path="url(#clipPath18)"><g
           id="g20"
           transform="matrix(2.5950062,0,0,2.5950062,543.6312,760.53219)"><path
             d="M 0,0 C -5.966,16.431 -14.841,28.556 -29.878,28.556 -45.507,28.556 -55.34,14.306 -59.896,0 Z"
             style="fill:#135792;fill-opacity:1;fill-rule:nonzero;stroke:none"
             id="path22" /></g><g
           id="g24"
           transform="matrix(2.5950062,0,0,2.5950062,595.04477,404.29154)"><path
             d="m 0,0 c 0,-3.107 -2.519,-5.625 -5.626,-5.625 -3.106,0 -5.626,2.518 -5.626,5.625 v 9.697 c 0,3.107 2.52,5.625 5.626,5.625 C -2.519,15.322 0,12.804 0,9.697 Z m -21.842,63.097 c 0,-3.107 -2.518,-5.626 -5.626,-5.626 -3.106,0 -5.626,2.519 -5.626,5.626 v 19.29 c 0,3.107 2.52,5.626 5.626,5.626 3.108,0 5.626,-2.519 5.626,-5.626 z m 0,-45.022 c 0,-3.107 -2.518,-5.626 -5.626,-5.626 -3.106,0 -5.626,2.519 -5.626,5.626 v 26.417 c 0,3.108 2.52,5.626 5.626,5.626 3.108,0 5.626,-2.518 5.626,-5.626 z M -44.293,86.44 c 0,-3.107 -2.52,-5.625 -5.626,-5.625 -3.107,0 -5.626,2.518 -5.626,5.625 v 12.608 c 0,3.107 2.519,5.626 5.626,5.626 3.106,0 5.626,-2.519 5.626,-5.626 z m 0,-58.61 c 0,-3.107 -2.52,-5.626 -5.626,-5.626 -3.107,0 -5.626,2.519 -5.626,5.626 v 39.286 c 0,3.107 2.519,5.626 5.626,5.626 3.106,0 5.626,-2.519 5.626,-5.626 z m 0,-33.497 c 0,-3.107 -2.52,-5.626 -5.626,-5.626 -3.107,0 -5.626,2.519 -5.626,5.626 v 16.671 c 0,3.107 2.519,5.625 5.626,5.625 3.106,0 5.626,-2.518 5.626,-5.625 z m -22.491,64.193 c 0,-3.107 -2.519,-5.626 -5.626,-5.626 -3.107,0 -5.626,2.519 -5.626,5.626 v 13.096 c 0,3.107 2.519,5.626 5.626,5.626 3.107,0 5.626,-2.519 5.626,-5.626 z m 0,-57.6 c 0,-3.107 -2.519,-5.626 -5.626,-5.626 -3.107,0 -5.626,2.519 -5.626,5.626 v 41.033 c 0,3.107 2.519,5.625 5.626,5.625 3.107,0 5.626,-2.518 5.626,-5.625 z m -21.711,1.106 c 0,-3.107 -2.518,-5.626 -5.626,-5.626 -3.107,0 -5.625,2.519 -5.625,5.626 v 9.697 c 0,3.107 2.518,5.625 5.625,5.625 3.108,0 5.626,-2.518 5.626,-5.625 z M 38.094,-43.332 c 0,0 -54.019,169.264 -56.35,175.36 h -63.392 c -0.095,-0.281 -0.143,-0.424 -0.143,-0.424 l -56.048,-174.936 c 0,-2.535 2.02,-4.628 4.67,-5.043 l -0.011,-0.068 h 0.752 c 0.073,-0.003 0.141,-0.02 0.214,-0.02 0.074,0 0.142,0.017 0.214,0.02 h 31.661 v 28.786 c 0,3.106 2.519,5.625 5.626,5.625 3.107,0 5.626,-2.519 5.626,-5.625 v -28.786 h 0.045 v -4.074 c 0,-3.107 2.519,-5.626 5.625,-5.626 2.536,0 4.678,1.678 5.381,3.983 v 40.17 c 0,3.107 2.519,5.626 5.626,5.626 3.107,0 5.626,-2.519 5.626,-5.626 v -27.187 h 0.038 v -22.562 c 0,-3.107 2.519,-5.626 5.626,-5.626 3.107,0 5.627,2.519 5.627,5.626 v 6.256 c -0.031,0.237 -0.052,0.477 -0.052,0.723 v 35.82 c 0,3.107 2.519,5.626 5.626,5.626 3.106,0 5.626,-2.519 5.626,-5.626 v -28.625 c 0.584,-2.484 2.809,-4.334 5.471,-4.334 3.107,0 5.728,2.518 5.728,5.625 v 4.813 2.284 42.684 c 0,3.107 2.52,5.626 5.626,5.626 3.108,0 5.626,-2.519 5.626,-5.626 v -42.684 -4.284 -13.229 c 0,-3.107 2.519,-5.625 5.626,-5.625 2.822,0 5.153,2.082 5.557,5.541 v 37.085 c 0,3.106 2.519,5.625 5.626,5.625 3.107,0 5.626,-2.519 5.626,-5.625 v -26.754 h 31.661 c 0.072,-0.003 0.141,-0.02 0.214,-0.02 0.073,0 0.141,0.017 0.215,0.02 h 0.752 l -0.011,0.068 c 2.649,0.415 4.67,2.508 4.67,5.043"
             style="fill:#3897cb;fill-opacity:1;fill-rule:nonzero;stroke:none"
             id="path26" /></g><g
           id="g28"
           transform="matrix(3.7368089,0,0,3.7368089,550.8282,217.63866)"><path
             d="m 0,0 c -3.154,0 -5.72,-2.566 -5.72,-5.721 0,-1.052 0.289,-2.082 0.836,-2.978 1.05,-1.717 2.875,-2.74 4.884,-2.74 3.154,0 5.72,2.564 5.72,5.718 C 5.72,-2.566 3.154,0 0,0"
             style="fill:#f15a29;fill-opacity:1;fill-rule:nonzero;stroke:none"
             id="path30" /></g><g
           id="g32"
           transform="matrix(2.5950062,0,0,2.5950062,550.8282,40.083465)"><path
             d="m 0,0 v 0 c 2.099,0 3.799,-1.701 3.799,-3.8 0,-2.097 -1.7,-3.799 -3.799,-3.799 -1.373,0 -2.576,0.729 -3.244,1.821 -0.352,0.577 -0.555,1.254 -0.555,1.978 0,2.099 1.701,3.8 3.799,3.8"
             style="fill:#f15a29;fill-opacity:1;fill-rule:nonzero;stroke:none"
             id="path34" /></g><g
           id="g40"
           transform="matrix(3.1140075,0,0,3.1140075,550.8282,99.770943)"><path
             d="M 0,0 V 0 C 2.519,0 4.561,-2.042 4.561,-4.561 4.561,-7.079 2.519,-9.12 0,-9.12 c -1.648,0 -3.093,0.874 -3.895,2.184 -0.421,0.693 -0.666,1.505 -0.666,2.375 C -4.561,-2.042 -2.519,0 0,0"
             style="fill:#f15a29;fill-opacity:1;fill-rule:nonzero;stroke:none"
             id="path42" /></g><g
           id="g44"
           transform="matrix(3.1140075,0,0,3.1140075,550.82795,156.75676)"><path
             d="m 0,0 v 0 c 2.809,0 5.087,-2.277 5.087,-5.087 0,-2.809 -2.278,-5.086 -5.087,-5.086 -1.839,0 -3.449,0.976 -4.343,2.438 -0.471,0.771 -0.743,1.678 -0.743,2.648 C -5.086,-2.277 -2.81,0 0,0"
             style="fill:#f15a29;fill-opacity:1;fill-rule:nonzero;stroke:none"
             id="path46" /></g><g
           id="g48"
           transform="matrix(3.7368089,0,0,3.7368089,435.78249,204.66363)"><path
             d="m 0,0 c -3.154,0 -5.72,-2.566 -5.72,-5.721 0,-1.052 0.289,-2.082 0.836,-2.978 1.05,-1.717 2.875,-2.74 4.884,-2.74 3.154,0 5.72,2.564 5.72,5.718 C 5.72,-2.566 3.154,0 0,0"
             style="fill:#f15a29;fill-opacity:1;fill-rule:nonzero;stroke:none"
             id="path50" /></g><g
           id="g52"
           transform="matrix(2.5950062,0,0,2.5950062,435.78379,27.108434)"><path
             d="m 0,0 v 0 c 2.098,0 3.799,-1.701 3.799,-3.8 0,-2.097 -1.701,-3.799 -3.799,-3.799 -1.374,0 -2.577,0.729 -3.244,1.821 -0.352,0.577 -0.555,1.254 -0.555,1.978 0,2.099 1.7,3.8 3.799,3.8"
             style="fill:#f15a29;fill-opacity:1;fill-rule:nonzero;stroke:none"
             id="path54" /></g><g
           id="g60"
           transform="matrix(3.1140075,0,0,3.1140075,435.78224,86.795912)"><path
             d="M 0,0 V 0 C 2.519,0 4.561,-2.042 4.561,-4.561 4.561,-7.079 2.519,-9.12 0,-9.12 c -1.648,0 -3.093,0.874 -3.894,2.184 -0.422,0.693 -0.666,1.505 -0.666,2.375 C -4.56,-2.042 -2.519,0 0,0"
             style="fill:#f15a29;fill-opacity:1;fill-rule:nonzero;stroke:none"
             id="path62" /></g><g
           id="g64"
           transform="matrix(3.1140075,0,0,3.1140075,435.78249,143.78173)"><path
             d="m 0,0 v 0 c 2.809,0 5.086,-2.277 5.086,-5.087 0,-2.809 -2.277,-5.086 -5.086,-5.086 -1.839,0 -3.449,0.976 -4.343,2.438 -0.471,0.771 -0.743,1.678 -0.743,2.648 C -5.086,-2.277 -2.809,0 0,0"
             style="fill:#f15a29;fill-opacity:1;fill-rule:nonzero;stroke:none"
             id="path66" /></g><g
           id="g68"
           transform="matrix(3.7368089,0,0,3.7368089,493.3047,242.29122)"><path
             d="m 0,0 c -3.154,0 -5.72,-2.566 -5.72,-5.721 0,-1.052 0.289,-2.082 0.836,-2.978 1.05,-1.717 2.875,-2.74 4.884,-2.74 3.154,0 5.72,2.564 5.72,5.718 C 5.72,-2.566 3.154,0 0,0"
             style="fill:#f15a29;fill-opacity:1;fill-rule:nonzero;stroke:none"
             id="path70" /></g><g
           id="g72"
           transform="matrix(2.5950062,0,0,2.5950062,493.3047,72.521035)"><path
             d="m 0,0 v 0 c 2.099,0 3.8,-1.701 3.8,-3.8 0,-2.097 -1.701,-3.799 -3.8,-3.799 -1.373,0 -2.576,0.729 -3.243,1.821 -0.353,0.577 -0.556,1.254 -0.556,1.978 0,2.099 1.701,3.8 3.799,3.8"
             style="fill:#f15a29;fill-opacity:1;fill-rule:nonzero;stroke:none"
             id="path74" /></g><g
           id="g80"
           transform="matrix(3.1140075,0,0,3.1140075,493.30444,129.6135)"><path
             d="M 0,0 V 0 C 2.519,0 4.561,-2.042 4.561,-4.561 4.561,-7.079 2.519,-9.12 0,-9.12 c -1.648,0 -3.093,0.874 -3.894,2.184 -0.422,0.693 -0.666,1.505 -0.666,2.375 C -4.56,-2.042 -2.519,0 0,0"
             style="fill:#f15a29;fill-opacity:1;fill-rule:nonzero;stroke:none"
             id="path82" /></g><g
           id="g84"
           transform="matrix(3.1140075,0,0,3.1140075,493.30444,184.00431)"><path
             d="m 0,0 v 0 c 2.81,0 5.087,-2.277 5.087,-5.087 0,-2.809 -2.277,-5.086 -5.087,-5.086 -1.839,0 -3.449,0.976 -4.343,2.438 -0.471,0.771 -0.743,1.678 -0.743,2.648 C -5.086,-2.277 -2.809,0 0,0"
             style="fill:#f15a29;fill-opacity:1;fill-rule:nonzero;stroke:none"
             id="path86" /></g><g
           id="g88"
           transform="matrix(3.7368089,0,0,3.7368089,378.26029,233.63947)"><path
             d="m 0,0 c -3.154,0 -5.72,-2.564 -5.72,-5.719 0,-1.054 0.289,-2.084 0.836,-2.98 1.05,-1.715 2.875,-2.74 4.884,-2.74 3.154,0 5.72,2.566 5.72,5.72 C 5.72,-2.564 3.154,0 0,0"
             style="fill:#f15a29;fill-opacity:1;fill-rule:nonzero;stroke:none"
             id="path90" /></g><g
           id="g92"
           transform="matrix(2.5950062,0,0,2.5950062,378.26029,63.871881)"><path
             d="m 0,0 v 0 c 2.098,0 3.799,-1.701 3.799,-3.8 0,-2.097 -1.701,-3.799 -3.799,-3.799 -1.374,0 -2.577,0.729 -3.244,1.821 -0.352,0.576 -0.555,1.254 -0.555,1.978 0,2.099 1.701,3.8 3.799,3.8"
             style="fill:#f15a29;fill-opacity:1;fill-rule:nonzero;stroke:none"
             id="path94" /></g><g
           id="g100"
           transform="matrix(3.1140075,0,0,3.1140075,378.26003,120.96462)"><path
             d="m 0,0 v 0 c 2.519,0 4.561,-2.042 4.561,-4.561 0,-2.518 -2.042,-4.56 -4.561,-4.56 -1.649,0 -3.093,0.875 -3.894,2.185 -0.422,0.692 -0.666,1.505 -0.666,2.375 C -4.56,-2.042 -2.519,0 0,0"
             style="fill:#f15a29;fill-opacity:1;fill-rule:nonzero;stroke:none"
             id="path102" /></g><g
           id="g104"
           transform="matrix(3.1140075,0,0,3.1140075,378.26029,175.35516)"><path
             d="m 0,0 v 0 c 2.809,0 5.086,-2.277 5.086,-5.087 0,-2.809 -2.277,-5.086 -5.086,-5.086 -1.839,0 -3.45,0.976 -4.343,2.437 -0.471,0.772 -0.743,1.678 -0.743,2.649 C -5.086,-2.277 -2.809,0 0,0"
             style="fill:#f15a29;fill-opacity:1;fill-rule:nonzero;stroke:none"
             id="path106" /></g></g></g></g></svg>
